<?xml version="1.0" standalone="no"?>
<!DOCTYPE svg PUBLIC "-//W3C//DTD SVG 20010904//EN"
 "http://www.w3.org/TR/2001/REC-SVG-20010904/DTD/svg10.dtd">
<svg version="1.0" xmlns="http://www.w3.org/2000/svg"
 width="502.000000pt" height="275.000000pt" viewBox="0 0 502.000000 275.000000"
 preserveAspectRatio="xMidYMid meet">

<g transform="translate(0.000000,275.000000) scale(0.100000,-0.100000)"
fill="#000000" stroke="none">
<path d="M662 2693 c-7 -32 -15 -67 -18 -78 -3 -11 1 -29 9 -39 14 -19 16 -19
40 -3 15 9 35 17 45 17 36 0 108 73 115 116 1 11 6 25 10 32 5 6 4 12 -2 12
-5 0 -11 -5 -13 -11 -2 -7 -17 -7 -48 0 -25 6 -63 11 -85 11 l-41 0 -12 -57z"/>
<path d="M4980 2706 c0 -25 5 -46 12 -48 13 -5 4 -38 -10 -38 -5 0 -14 11 -20
25 -6 14 -26 34 -44 45 -71 43 -160 11 -188 -68 -13 -37 -13 -47 0 -84 21 -61
69 -91 135 -85 42 4 54 10 82 42 26 30 33 48 33 79 1 34 2 38 11 23 6 -11 12
-36 13 -58 1 -21 5 -41 9 -45 4 -4 7 52 7 124 0 125 -1 132 -20 132 -17 0 -20
-7 -20 -44z m-170 -126 c0 -13 -7 -20 -20 -20 -13 0 -20 7 -20 20 0 13 7 20
20 20 13 0 20 -7 20 -20z m60 0 c0 -13 -7 -20 -20 -20 -13 0 -20 7 -20 20 0
13 7 20 20 20 13 0 20 -7 20 -20z m60 0 c0 -13 -7 -20 -20 -20 -13 0 -20 7
-20 20 0 13 7 20 20 20 13 0 20 -7 20 -20z"/>
<path d="M3036 2511 c-3 -4 -8 -30 -11 -58 -7 -47 -6 -51 16 -56 44 -12 57 -8
68 24 6 18 11 39 11 48 0 17 -76 55 -84 42z"/>
<path d="M0 2320 c0 -5 5 -10 11 -10 5 0 7 5 4 10 -3 6 -8 10 -11 10 -2 0 -4
-4 -4 -10z"/>
<path d="M35 2320 c-3 -5 -1 -10 4 -10 6 0 11 5 11 10 0 6 -2 10 -4 10 -3 0
-8 -4 -11 -10z"/>
<path d="M2951 2287 c-6 -6 -54 -12 -113 -14 -156 -4 -257 -48 -384 -166 -83
-78 -128 -147 -139 -215 -4 -20 -20 -62 -36 -93 -15 -31 -35 -82 -44 -114 -17
-69 -20 -231 -4 -272 21 -55 37 -129 49 -232 6 -57 17 -110 25 -117 21 -22 44
-146 38 -207 -5 -51 -8 -57 -35 -66 -21 -8 -35 -25 -55 -68 -24 -51 -28 -74
-31 -184 -3 -93 0 -149 13 -210 20 -102 79 -231 130 -287 l37 -42 152 0 c83 0
147 4 141 8 -5 4 -30 28 -54 54 -36 38 -45 57 -52 100 -5 29 -14 64 -21 77
-11 20 -10 25 10 41 21 17 27 18 67 5 46 -13 60 -22 139 -88 25 -22 51 -37 58
-34 8 2 -24 41 -79 96 -106 106 -113 115 -113 169 0 31 7 46 32 71 49 48 82
42 173 -33 45 -37 43 -33 -28 47 -43 48 -75 92 -71 98 3 6 22 17 40 25 30 13
37 12 59 -2 13 -8 37 -15 52 -13 34 2 81 -9 108 -27 45 -31 39 -3 -10 49 -15
16 -24 34 -21 43 5 13 9 13 31 -2 14 -9 23 -20 20 -24 -2 -4 6 -5 19 -3 15 3
28 -2 37 -14 10 -12 28 -18 57 -19 40 -1 49 -6 123 -80 44 -43 82 -90 86 -104
3 -14 10 -31 16 -38 6 -8 5 -12 -4 -12 -11 0 -11 -2 -1 -8 14 -9 46 -60 65
-104 6 -16 17 -28 24 -28 8 0 11 -19 10 -59 -1 -51 -5 -62 -23 -72 -12 -6 -27
-8 -33 -5 -7 5 -9 -3 -5 -22 5 -23 1 -33 -17 -45 -19 -14 -20 -19 -9 -32 11
-13 65 -15 426 -15 250 0 414 4 414 9 0 16 -114 154 -157 191 -23 19 -85 57
-140 84 -138 68 -181 97 -192 129 -5 15 -16 27 -23 27 -7 0 -39 16 -70 35 -32
19 -59 31 -61 27 -3 -4 -12 -31 -22 -60 -9 -29 -25 -56 -35 -62 -23 -12 -27
-6 -22 31 3 22 7 27 13 18 7 -11 9 -11 9 2 0 9 -6 22 -14 28 -11 9 -15 7 -19
-11 -6 -22 -7 -22 -21 -3 -7 10 -13 29 -11 42 1 13 -2 23 -6 23 -5 0 -9 14 -9
31 0 18 -5 48 -11 68 -9 32 -7 45 25 121 20 46 36 89 36 94 0 5 -9 29 -21 52
-11 23 -21 62 -22 86 -2 42 -1 43 28 40 28 -3 50 -21 39 -31 -3 -3 -9 1 -14 9
-7 11 -9 5 -9 -20 1 -19 3 -27 6 -18 8 32 73 40 104 12 16 -14 39 -19 39 -8 0
3 -5 15 -12 27 -15 28 -12 76 8 123 23 55 57 284 61 420 4 108 2 133 -23 225
-15 57 -31 107 -37 111 -6 3 1 16 17 30 24 21 26 26 16 52 -6 16 -8 36 -5 45
3 11 -8 23 -34 38 -22 13 -60 40 -85 62 -25 22 -74 54 -108 71 -35 18 -70 37
-78 44 -28 23 -70 35 -137 42 -39 3 -87 16 -113 29 -54 26 -142 39 -159 22z
m124 -819 c32 -8 50 -18 50 -28 0 -9 -32 -31 -78 -53 -82 -40 -90 -53 -32 -49
33 2 35 1 35 -27 0 -16 -10 -51 -22 -78 -37 -82 -47 -117 -39 -128 5 -5 5 -19
0 -30 -13 -34 -10 -103 6 -119 8 -8 15 -23 15 -34 0 -26 25 -46 50 -39 16 4
24 -1 31 -20 12 -32 7 -38 -19 -24 -28 15 -63 13 -86 -4 -29 -22 -76 -18 -103
6 -14 14 -40 24 -72 27 -38 3 -52 9 -56 23 -10 30 4 41 41 35 31 -6 35 -4 53
31 10 21 28 47 40 57 12 11 21 31 21 48 0 16 6 31 15 34 8 4 15 10 15 16 0 5
-4 6 -10 3 -5 -3 -10 1 -10 9 0 9 4 16 8 16 5 0 8 40 7 90 -2 84 -4 92 -29
115 -15 14 -38 28 -51 31 -13 3 -29 12 -36 20 -6 8 -21 14 -33 14 -23 0 -61
20 -38 20 6 0 12 7 12 15 0 16 73 39 101 32 11 -3 22 -1 25 5 7 12 121 4 189
-14z m-381 -173 c-7 -17 -20 -20 -28 -6 -7 10 3 21 20 21 8 0 11 -6 8 -15z
m126 -15 c0 -5 -2 -10 -4 -10 -3 0 -8 5 -11 10 -3 6 -1 10 4 10 6 0 11 -4 11
-10z m-50 -69 c0 -9 -24 -21 -41 -21 -5 0 -9 7 -9 15 0 9 9 15 25 15 14 0 25
-4 25 -9z m55 -52 c4 -5 0 -18 -9 -28 -9 -10 -16 -27 -16 -39 0 -32 -20 -73
-57 -115 -18 -20 -33 -46 -33 -58 0 -11 -8 -34 -17 -50 -19 -32 -14 -45 14
-31 26 13 43 4 43 -24 0 -20 4 -23 23 -19 28 7 52 -8 44 -28 -7 -18 -73 -27
-105 -16 -43 16 -80 10 -100 -16 -11 -14 -25 -25 -31 -25 -5 0 -15 -9 -21 -20
-12 -22 -53 -28 -44 -7 2 7 -2 27 -11 43 -8 16 -15 34 -15 41 0 7 -6 16 -12
20 -7 4 -15 17 -17 28 -8 44 -8 161 0 171 5 6 5 24 -1 42 -7 28 -6 34 13 44
12 6 24 14 27 17 14 16 84 41 89 32 4 -6 17 -4 34 8 15 9 25 20 22 23 -3 3 12
6 35 6 38 1 40 -1 34 -21 -3 -12 -3 -19 1 -15 5 4 14 3 22 -3 9 -8 13 -8 13
-1 0 6 9 14 20 17 11 4 18 10 15 15 -3 5 1 11 7 13 20 8 26 8 33 -4z m425 -84
c0 -17 -2 -18 -24 -9 -23 9 -20 24 4 24 11 0 20 -7 20 -15z m-53 -85 c1 0 0
-6 -3 -14 -4 -10 2 -14 20 -12 14 0 26 7 26 14 0 17 46 15 64 -4 9 -8 16 -25
16 -36 0 -12 7 -29 15 -38 17 -19 9 -90 -10 -90 -7 0 -16 -7 -19 -16 -3 -9
-13 -14 -21 -10 -8 3 -17 1 -21 -5 -3 -6 -12 -8 -20 -5 -7 3 -16 1 -19 -4 -12
-19 -44 -10 -65 17 -18 23 -20 36 -15 70 5 33 2 50 -12 71 -10 15 -17 37 -15
50 4 23 10 24 79 12z m-257 -260 c0 -5 -4 -10 -10 -10 -5 0 -10 5 -10 10 0 6
5 10 10 10 6 0 10 -4 10 -10z"/>
<path d="M2680 1079 c0 -5 5 -7 10 -4 6 3 10 8 10 11 0 2 -4 4 -10 4 -5 0 -10
-5 -10 -11z"/>
<path d="M0 2235 c0 -11 5 -27 10 -35 8 -12 10 -12 10 5 0 11 -5 27 -10 35 -8
12 -10 12 -10 -5z"/>
<path d="M4985 2214 c10 -8 22 -14 27 -14 4 0 8 6 8 14 0 8 -11 14 -27 14 -25
0 -26 -1 -8 -14z"/>
<path d="M4980 2181 c0 -5 7 -11 15 -15 21 -8 19 -35 -2 -31 -22 3 -53 -12
-53 -26 0 -7 10 -9 24 -5 30 7 31 -20 0 -49 -17 -17 -19 -25 -10 -45 8 -17 7
-25 -2 -28 -13 -4 -17 -42 -4 -42 14 0 32 -72 22 -85 -5 -6 -11 -29 -13 -50
-3 -23 -10 -39 -16 -37 -9 2 -9 -3 -1 -18 6 -11 9 -20 6 -20 -2 0 -1 -15 4
-33 4 -18 3 -43 -2 -56 -7 -20 -11 -21 -24 -11 -12 11 -18 10 -32 -3 -13 -14
-14 -19 -3 -29 11 -11 13 -10 8 4 -5 15 -3 16 18 6 31 -14 34 -43 5 -35 -13 3
-20 0 -20 -9 0 -8 -5 -14 -11 -14 -17 0 -46 -33 -32 -37 7 -3 10 -10 7 -18 -3
-7 0 -16 6 -20 9 -6 9 -10 -1 -16 -12 -8 -12 -10 0 -18 10 -7 11 -13 2 -30
-10 -19 -9 -21 11 -21 19 0 20 -2 8 -10 -8 -5 -10 -10 -5 -10 9 0 11 -28 6
-99 -1 -16 -5 -21 -16 -17 -12 4 -13 2 -6 -13 7 -12 7 -21 0 -28 -13 -13 -19
-173 -8 -195 7 -12 6 -18 -1 -18 -7 0 -9 -17 -5 -47 3 -27 7 -76 9 -111 2 -35
6 -66 10 -69 3 -3 3 -17 0 -30 -4 -16 0 -31 11 -43 17 -19 17 -21 2 -38 -21
-23 -21 -36 -1 -56 14 -15 14 -16 -1 -16 -13 0 -16 -8 -14 -42 2 -23 -1 -43
-7 -45 -6 -2 -9 -21 -8 -42 2 -33 -1 -38 -17 -34 -22 6 -26 -16 -6 -36 10 -10
8 -12 -8 -9 -14 3 -19 11 -18 26 2 19 1 21 -11 10 -8 -7 -12 -16 -9 -20 6 -11
-29 -10 -47 2 -12 7 -10 11 10 19 18 7 20 10 7 10 -10 1 -22 13 -27 27 -10 26
-35 29 -35 3 0 -8 -7 -19 -15 -26 -11 -9 -12 -14 -3 -24 6 -6 9 -18 6 -25 -4
-12 -8 -12 -21 -2 -13 11 -15 10 -9 -4 3 -10 2 -18 -4 -18 -6 0 -8 -11 -4 -29
5 -23 2 -29 -14 -34 -12 -3 -19 0 -18 6 4 21 -42 15 -49 -5 -5 -15 -12 -19
-33 -15 -15 3 -34 -1 -45 -9 -12 -8 -15 -14 -7 -14 11 0 10 -5 -1 -23 -9 -12
-18 -21 -22 -19 -10 4 -51 -41 -51 -57 0 -7 -9 -19 -20 -25 -11 -6 -23 -15
-26 -20 -4 -5 -12 -5 -18 -2 -6 4 -11 4 -10 -1 3 -20 -2 -25 -16 -13 -8 7 -12
16 -9 21 3 5 3 9 -1 9 -3 0 -10 -11 -15 -25 -8 -20 -16 -25 -46 -25 -19 0 -34
-3 -32 -7 3 -5 11 -23 18 -40 l14 -33 388 0 388 0 0 1044 c0 671 -4 1047 -10
1051 -6 4 -5 13 2 25 9 15 9 24 -2 44 -13 25 -30 35 -30 17z m-86 -986 c-6
-16 -24 -21 -24 -7 0 11 11 22 21 22 5 0 6 -7 3 -15z"/>
<path d="M0 1074 l0 -1074 633 0 c349 0 636 3 639 6 7 6 -14 67 -26 75 -5 4 1
10 13 14 21 6 22 7 4 21 -17 13 -17 13 0 14 13 0 17 7 15 28 -2 15 2 26 8 25
8 -1 9 10 4 36 -4 22 -5 54 -3 72 3 19 5 50 5 69 0 28 2 31 8 15 8 -18 9 -18
9 6 1 14 6 30 13 37 7 7 8 12 4 12 -5 0 4 10 19 21 22 18 29 20 36 8 6 -9 9
-10 9 -2 0 6 -4 15 -10 18 -5 3 -10 13 -10 21 0 11 6 13 23 8 12 -3 19 -3 15
1 -4 5 -3 14 3 22 9 10 8 13 -3 13 -25 0 -131 -79 -190 -144 -32 -33 -71 -76
-88 -93 -17 -18 -40 -33 -51 -33 -17 0 -18 -3 -8 -21 8 -15 8 -24 0 -32 -6 -6
-11 -20 -12 -31 0 -15 -2 -17 -6 -6 -4 8 -13 20 -21 26 -13 9 -11 13 9 29 16
11 18 15 6 11 -16 -5 -17 -1 -13 32 4 27 3 30 -2 12 -5 -16 -15 -24 -25 -22
-13 2 -16 -4 -13 -28 2 -16 -1 -30 -6 -30 -5 0 -8 8 -6 17 2 13 -6 21 -27 28
-19 6 -31 18 -33 32 -2 14 -8 20 -18 16 -16 -6 -20 22 -4 32 5 3 10 10 10 15
0 11 -32 1 -43 -14 -5 -7 -12 -5 -22 8 -8 10 -19 15 -26 10 -8 -5 -10 -3 -4 6
6 10 4 12 -8 7 -10 -3 -17 -2 -17 3 0 5 -8 9 -17 8 -45 -3 -62 3 -76 31 -12
25 -12 29 2 39 14 9 13 11 -6 11 -22 1 -31 15 -15 24 4 2 1 2 -5 1 -7 -2 -13
0 -13 5 0 5 -11 11 -25 13 -16 4 -25 0 -28 -11 -4 -13 -5 -13 -6 2 0 9 -8 17
-17 17 -10 0 -6 8 13 25 15 13 23 25 16 25 -7 0 -24 12 -40 26 -15 14 -23 24
-18 23 14 -4 55 11 55 20 0 10 -31 8 -49 -4 -10 -6 -12 -4 -6 5 4 7 2 16 -6
21 -11 7 -10 9 4 9 21 0 22 8 0 32 -9 10 -11 18 -6 18 6 0 14 -7 17 -16 5 -13
9 -14 21 -4 18 15 20 46 4 56 -6 4 -9 19 -5 35 5 28 4 29 -17 17 -33 -18 -87
-37 -82 -27 8 12 -14 22 -54 25 -24 1 -30 0 -17 -5 11 -4 15 -10 10 -13 -5 -3
-18 -2 -29 3 -11 4 -15 8 -10 8 6 1 3 6 -5 11 -13 8 -12 10 3 10 19 0 21 8 8
29 -5 7 -14 10 -20 7 -7 -5 -11 2 -11 17 0 25 -22 52 -33 41 -3 -3 -4 2 -2 13
2 10 4 21 4 26 1 4 9 7 19 7 12 0 10 4 -8 13 -26 13 -41 49 -18 44 7 -2 10 -2
6 0 -5 3 -8 12 -8 22 0 9 -6 26 -14 36 -8 11 -11 26 -8 34 3 9 1 12 -6 7 -15
-9 -17 35 -2 50 6 6 6 30 1 63 -7 46 -6 56 10 69 11 9 19 26 19 39 0 12 4 24
9 27 5 3 9 24 9 47 1 23 6 47 11 52 6 6 11 22 11 36 -1 25 -1 25 -15 7 -8 -11
-18 -16 -22 -13 -4 4 -1 13 5 19 18 18 14 31 -7 25 -24 -6 -18 17 12 51 17 18
18 22 5 22 -9 0 -19 -6 -21 -12 -3 -8 -6 -6 -6 5 -1 9 6 17 14 17 8 0 15 3 15
8 0 10 -51 32 -61 26 -5 -3 -9 2 -9 10 0 9 -4 16 -10 16 -5 0 -9 10 -7 22 1
17 -4 24 -20 26 -24 4 -33 -23 -11 -30 9 -3 8 -8 -2 -20 -13 -14 -17 -14 -38
0 -18 12 -22 21 -17 39 3 14 2 22 -3 19 -13 -8 -10 27 3 37 6 4 5 10 -3 16
-11 7 -11 9 2 14 9 4 16 11 16 17 0 16 -31 12 -53 -7 -20 -17 -20 -17 -14 0 4
10 7 23 7 28 0 6 4 8 9 5 5 -3 11 3 14 14 3 13 0 20 -9 20 -8 0 -14 4 -14 8 0
5 -10 14 -22 20 l-23 11 24 0 c23 1 23 2 8 19 -22 24 -21 32 4 32 13 0 18 4
13 13 -5 8 -2 7 9 -2 10 -8 20 -11 23 -9 9 10 -27 38 -49 39 -62 3 -72 5 -73
17 -1 6 -2 13 -3 15 -11 12 -8 55 4 73 20 30 19 31 -10 36 l-25 5 0 -1073z
m574 -336 c6 -4 7 -10 3 -14 -10 -10 -37 28 -29 40 3 6 8 3 10 -4 3 -8 10 -18
16 -22z m-56 -40 c15 -15 16 -55 0 -64 -6 -4 -9 -3 -6 2 8 13 -7 49 -21 50
-21 3 -22 4 -16 14 8 14 28 13 43 -2z m146 -243 c4 -11 -3 -19 -20 -25 -32
-13 -44 -13 -44 0 0 10 14 14 39 10 9 -1 12 4 8 14 -4 9 -2 16 2 16 5 0 12 -7
15 -15z m206 -145 c0 -5 -4 -10 -10 -10 -5 0 -10 5 -10 10 0 6 5 10 10 10 6 0
10 -4 10 -10z m-730 -147 l13 -28 11 28 c15 41 46 36 46 -8 0 -28 3 -33 17
-28 11 4 12 8 5 11 -33 11 -4 21 65 21 61 0 79 -3 89 -17 13 -16 13 -16 14 1
0 13 9 17 44 17 25 0 48 -4 51 -10 3 -6 -2 -10 -11 -10 -16 0 -16 -1 2 -14 14
-11 16 -18 8 -26 -17 -17 -59 -8 -59 12 0 28 -12 30 -19 3 -8 -32 -33 -32 -48
0 -6 14 -19 25 -30 25 -13 0 -18 -7 -18 -25 0 -34 -20 -32 -21 3 l-2 27 -4
-27 c-4 -27 -7 -28 -59 -27 -42 1 -54 5 -55 18 -1 13 -2 13 -6 -1 -6 -25 -32
-22 -43 5 l-9 22 0 -22 c-2 -44 -19 -22 -23 27 -2 40 0 50 13 50 9 0 22 -12
29 -27z m470 17 c0 -5 -9 -10 -20 -10 -11 0 -20 -4 -20 -10 0 -5 9 -10 20 -10
11 0 20 -4 20 -10 0 -5 -9 -10 -20 -10 -11 0 -20 -4 -20 -10 0 -5 9 -10 20
-10 11 0 20 -4 20 -10 0 -5 -16 -10 -35 -10 l-35 0 0 50 0 50 35 0 c19 0 35
-4 35 -10z m40 -8 c0 -15 6 -18 31 -14 20 3 34 0 40 -9 6 -10 9 -6 9 14 0 17
5 27 15 27 8 0 15 -7 15 -15 0 -9 9 -15 24 -15 13 0 26 -7 30 -15 3 -8 11 -15
18 -14 10 0 10 2 1 6 -25 10 -12 23 22 23 33 0 35 -2 35 -35 0 -33 -2 -35 -35
-35 -19 0 -35 5 -35 11 0 8 -4 8 -14 0 -8 -7 -47 -11 -100 -10 l-86 1 0 49 c0
37 4 49 15 49 8 0 15 -8 15 -18z"/>
<path d="M658 133 c7 -3 16 -2 19 1 4 3 -2 6 -13 5 -11 0 -14 -3 -6 -6z"/>
<path d="M760 125 c0 -8 7 -15 15 -15 8 0 15 7 15 15 0 8 -7 15 -15 15 -8 0
-15 -7 -15 -15z"/>
<path d="M4945 2080 c-3 -5 1 -10 10 -10 9 0 13 5 10 10 -3 6 -8 10 -10 10 -2
0 -7 -4 -10 -10z"/>
<path d="M80 2046 c0 -9 7 -12 20 -9 11 3 17 9 14 14 -8 14 -34 10 -34 -5z"/>
<path d="M140 1900 c-8 -5 -11 -12 -8 -16 4 -3 14 1 23 10 18 17 9 21 -15 6z"/>
<path d="M1590 1740 c0 -5 5 -10 10 -10 6 0 10 5 10 10 0 6 -4 10 -10 10 -5 0
-10 -4 -10 -10z"/>
<path d="M280 1690 c0 -5 7 -10 15 -10 8 0 15 5 15 10 0 6 -7 10 -15 10 -8 0
-15 -4 -15 -10z"/>
<path d="M1590 1273 c0 -5 5 -15 10 -23 8 -12 10 -11 10 8 0 12 -4 22 -10 22
-5 0 -10 -3 -10 -7z"/>
<path d="M1629 1193 c12 -24 31 -39 31 -25 0 5 -10 17 -21 28 -22 19 -22 19
-10 -3z"/>
<path d="M4349 1192 c-8 -2 -23 -7 -34 -12 -25 -11 -98 -30 -105 -27 -3 1 -25
-12 -50 -30 -25 -17 -59 -34 -77 -38 -17 -3 -36 -12 -42 -19 -14 -16 9 -81 29
-81 11 0 14 -11 13 -45 -1 -25 -2 -46 -4 -47 -1 -2 -3 -7 -4 -13 -1 -5 -4 -13
-5 -17 -1 -5 -2 -19 -1 -33 1 -14 -3 -32 -9 -40 -9 -13 -11 -13 -20 0 -7 10
-10 11 -10 2 0 -7 -12 -18 -27 -25 -16 -6 -31 -16 -35 -21 -4 -6 -17 -5 -35 4
-15 8 -35 15 -43 15 -8 1 -28 7 -44 13 -16 7 -35 11 -43 8 -7 -3 -13 1 -13 8
0 7 -16 21 -35 32 -19 10 -35 23 -35 30 0 18 -45 54 -68 54 -12 0 -22 -4 -22
-10 0 -5 7 -7 15 -4 21 8 67 -39 59 -59 -4 -10 -25 -18 -60 -23 -64 -8 -64
-16 -6 -61 97 -74 274 -104 398 -68 86 25 189 82 238 132 72 72 135 222 136
318 0 32 -5 42 -23 51 -13 6 -30 9 -38 6z"/>
<path d="M1682 1118 c17 -25 107 -92 114 -85 3 2 -17 22 -43 43 -27 21 -54 44
-61 51 -21 20 -26 15 -10 -9z"/>
<path d="M2148 1014 c-16 -8 -28 -19 -28 -24 0 -13 57 5 76 24 14 15 14 16 -3
16 -10 -1 -30 -8 -45 -16z"/>
<path d="M1820 1016 c0 -2 7 -7 16 -10 8 -3 12 -2 9 4 -6 10 -25 14 -25 6z"/>
<path d="M390 930 c-23 -7 -23 -8 -3 -9 12 -1 24 -7 26 -13 3 -7 6 -3 6 10 1
12 0 22 -1 21 -2 -1 -14 -5 -28 -9z"/>
<path d="M440 925 c0 -8 5 -15 10 -15 6 0 10 7 10 15 0 8 -4 15 -10 15 -5 0
-10 -7 -10 -15z"/>
<path d="M385 897 c-4 -10 -5 -21 -1 -24 10 -10 18 4 13 24 -4 17 -4 17 -12 0z"/>
<path d="M3600 890 c0 -5 5 -10 11 -10 5 0 7 5 4 10 -3 6 -8 10 -11 10 -2 0
-4 -4 -4 -10z"/>
<path d="M3558 863 c-20 -5 -23 -18 -8 -28 6 -3 17 0 25 9 25 24 21 29 -17 19z"/>
<path d="M457 853 c-4 -6 0 -19 8 -29 11 -15 14 -16 15 -4 0 21 -16 44 -23 33z"/>
<path d="M416 842 c-4 -7 -2 -12 4 -12 6 0 9 -4 6 -9 -3 -5 1 -12 10 -15 25
-10 27 -2 6 24 -13 16 -21 20 -26 12z"/>
<path d="M500 791 c0 -5 9 -7 20 -4 11 3 20 7 20 9 0 2 -9 4 -20 4 -11 0 -20
-4 -20 -9z"/>
<path d="M1920 723 c-44 -4 -46 -6 -68 -54 -13 -27 -22 -57 -19 -67 2 -9 -3
-30 -11 -46 -8 -17 -10 -31 -4 -35 15 -10 2 -89 -25 -142 -10 -20 -12 -33 -5
-38 9 -6 -14 -142 -29 -166 -4 -5 -12 -28 -18 -50 -28 -90 -31 -95 -67 -95
-22 0 -34 5 -34 13 0 8 -11 19 -25 25 -31 14 -46 15 -25 2 23 -14 6 -22 -25
-10 -37 14 -55 7 -48 -20 4 -13 0 -26 -8 -31 -8 -5 70 -8 196 -6 l209 2 24 75
c56 180 100 473 88 591 -3 24 -5 47 -5 52 -1 7 -12 7 -101 0z"/>
<path d="M620 710 c0 -5 5 -10 11 -10 5 0 7 5 4 10 -3 6 -8 10 -11 10 -2 0 -4
-4 -4 -10z"/>
<path d="M638 643 c7 -3 16 -2 19 1 4 3 -2 6 -13 5 -11 0 -14 -3 -6 -6z"/>
<path d="M1425 560 c-3 -5 1 -10 9 -10 9 0 16 5 16 10 0 6 -4 10 -9 10 -6 0
-13 -4 -16 -10z"/>
<path d="M2922 400 c7 -11 19 -22 28 -25 8 -4 4 5 -9 19 -29 31 -36 33 -19 6z"/>
<path d="M937 314 c-4 -4 -7 -13 -7 -21 0 -18 27 -16 34 3 3 8 2 13 -3 9 -5
-3 -11 0 -13 6 -2 5 -7 7 -11 3z"/>
<path d="M4346 164 c-4 -10 -1 -14 6 -12 15 5 23 28 10 28 -5 0 -13 -7 -16
-16z"/>
<path d="M4150 144 c0 -5 9 -15 20 -22 11 -7 20 -19 20 -27 0 -17 16 -20 25
-4 4 6 -2 19 -14 30 -12 11 -21 17 -21 13 0 -3 -7 -1 -15 6 -8 7 -15 8 -15 4z"/>
</g>
</svg>
